P2
16 16
255
195
158
152
55
226
111
105
63
8
115
198
78
152
201
110
225
211
3
173
33
19
32
33
87
46
20
194
85
206
208
171
19
238
69
74
209
52
52
144
60
39
214
11
191
161
121
33
244
251
206
22
15
110
55
229
156
202
168
114
154
248
30
173
231
226
119
57
24
43
202
211
82
161
222
145
194
216
178
184
212
2
206
228
112
134
202
141
81
243
0
107
236
30
152
85
2
17
142
153
60
216
109
15
123
77
32
62
38
211
246
250
213
70
95
197
76
170
83
157
158
83
137
11
241
34
96
243
178
239
13
239
72
122
126
195
71
158
130
109
241
248
232
71
190
199
14
11
114
97
41
17
53
178
29
39
84
252
154
8
108
167
119
181
161
245
248
233
20
123
214
7
244
63
78
179
8
219
191
122
189
232
12
242
27
168
153
111
165
179
119
146
218
238
72
124
100
65
102
121
61
189
0
50
252
205
229
5
170
37
0
104
141
12
218
168
52
243
152
217
39
16
235
2
127
52
253
227
245
101
220
51
162
220
228
159
171
202
165
213
112
165
189
253
49
24
39
101
12
191
190
51
79
171
180
206
223
